<?xml version="1.0" standalone="no"?>
<!DOCTYPE svg PUBLIC "-//W3C//DTD SVG 20010904//EN"
 "http://www.w3.org/TR/2001/REC-SVG-20010904/DTD/svg10.dtd">
<svg version="1.0" xmlns="http://www.w3.org/2000/svg"
 width="100.000000pt" height="100.000000pt" viewBox="0 0 100.000000 100.000000"
 preserveAspectRatio="xMidYMid meet">
<g transform="translate(0.000000,100.000000) scale(0.100000,-0.100000)"
fill="#000000" stroke="none">
<path d="M677 932 c-12 -13 -17 -37 -17 -86 0 -45 -4 -68 -12 -70 -7 -2 -44
-12 -81 -21 -46 -12 -71 -24 -78 -38 -11 -20 -10 -20 71 -13 l83 7 -7 -33
c-16 -79 -78 -117 -192 -118 -57 0 -74 -4 -89 -19 -16 -19 -16 -21 10 -45 46
-43 83 -49 176 -31 45 8 83 14 84 13 2 -2 5 -13 9 -24 5 -17 -5 -35 -43 -80
-67 -78 -80 -102 -61 -115 8 -5 32 -7 53 -4 31 4 37 2 37 -13 0 -36 -37 -56
-111 -60 -63 -4 -69 -6 -69 -26 0 -20 9 -25 78 -40 42 -9 102 -23 133 -30 51
-12 62 -12 110 4 61 21 79 41 79 87 0 45 -24 56 -96 45 l-56 -9 6 35 c3 19 19
53 36 74 31 38 32 58 4 58 -8 0 -14 9 -14 19 0 13 40 54 110 113 97 83 109 97
110 126 l0 32 -57 -6 c-32 -3 -73 -10 -91 -16 -53 -16 -64 -6 -46 39 9 21 28
54 43 73 44 56 44 59 16 72 -15 7 -35 29 -45 49 -20 39 -46 69 -59 69 -4 0
-15 -8 -24 -18z"/>
<path d="M215 806 c7 -43 4 -49 -72 -168 -44 -68 -83 -128 -86 -134 -3 -6 7
-21 24 -33 l30 -22 48 30 c26 17 51 31 54 31 17 0 3 -97 -32 -232 -38 -144
-39 -147 -20 -164 18 -16 20 -16 39 1 11 10 33 45 50 78 29 59 30 61 24 181
-6 108 -9 124 -30 146 l-23 26 24 61 c69 170 69 243 0 243 l-36 0 6 -44z"/>
</g>
</svg>
